<?xml version="1.0" encoding="utf-8" ?><svg xmlns="http://www.w3.org/2000/svg" xmlns:xlink="http://www.w3.org/1999/xlink" width="1200" height="1200" viewBox="0 0 1200 1200"><path fill="#ffffff" d="M514.345 505.192C537.037 504.335 564.638 505.105 587.805 505.121L728.816 505.13C729.293 521.662 728.831 540.466 728.838 557.21C693.705 555.842 653.468 556.82 617.906 556.786C618.168 561 617.759 569.343 617.695 573.813C617.556 583.482 617.556 593.153 617.695 602.822L728.744 602.974C728.116 618.834 728.333 635.927 728.439 651.838C691.867 651.408 654.55 652.152 617.806 652.042C618.017 666.608 617.529 682.737 617.543 697.535C628.164 697.135 642.058 697.737 653.021 697.769L728.775 697.734C728.591 714.907 728.739 732.269 728.766 749.458L597.398 749.55C568.716 749.845 540.032 749.809 511.352 749.443C561.298 724.652 569.013 706.928 581.799 654.648C556.303 654.134 529.005 654.345 503.478 654.654C497.58 675.664 488.45 692.007 466.605 699.043C436.004 708.9 403.931 693.408 395.318 661.88C385.68 626.602 387.624 567.163 430.368 554.445C444.889 550.139 463.018 551.419 476.36 558.795C491.497 567.15 498.27 583.621 502.615 599.509C528.962 599.115 554.624 599.943 581.437 599.275C580.993 597.068 580.508 594.871 579.979 592.683C572.295 561.13 561.584 534.22 533.328 515.261C527.9 511.619 520.651 509.086 514.875 505.526L514.345 505.192Z"/><path fill="#ffffff" d="M873.516 505.206C904.172 505.655 934.832 505.767 965.49 505.543L965.584 749.78L954.932 749.779C927.825 749.968 900.717 749.996 873.61 749.866C873.089 718.866 873.549 686.723 873.426 655.568C860.661 655.245 847.191 655.498 834.375 655.541L834.286 749.934C803.374 750.638 774.347 750.152 743.517 749.951L743.604 505.246C773.727 505.6 803.853 505.623 833.977 505.315C833.759 533.36 833.826 561.406 834.178 589.449C847.229 589.511 860.281 589.479 873.332 589.354C873.059 581.382 873.483 570.933 873.514 562.687C873.62 543.527 873.621 524.366 873.516 505.206Z"/><path fill="#ffffff" d="M237.156 505.485C267.54 505.72 297.924 505.781 328.308 505.667C327.641 534.884 328.186 564.7 328.197 593.978L328.189 750.475L237.275 750.481C237.467 713.895 237.465 677.308 237.269 640.722C237.261 595.896 237.642 550.257 237.156 505.485Z"/><path fill="#ffffff" d="M592.919 794.106C624.461 791.993 651.763 815.805 653.957 847.341C656.151 878.877 632.409 906.241 600.879 908.516C569.234 910.8 541.748 886.952 539.546 855.301C537.344 823.65 561.262 796.226 592.919 794.106ZM600.982 881.873C607.525 879.402 612.313 875.571 614.939 868.896C622.136 850.599 618.257 818.738 592.427 820.425C584.839 824.481 580.627 828.903 577.884 837.33C572.684 853.307 577.808 886.73 600.982 881.873Z"/><path fill="#ffffff" d="M429.507 797.526C450.087 797.657 501.982 794.34 517.654 805.878C522.911 809.748 526.354 815.238 527.394 821.686C528.943 831.295 527.317 840.801 519.73 847.357C517.518 849.269 514.373 851.243 512.713 853.566C514.358 857.492 521.71 861.703 525.641 865.499C528.866 875.686 527.274 891.433 530.009 905.193C522.521 905.263 515.348 905.369 507.862 905.023L494.685 904.616C490.956 873.653 500.798 867.047 463.614 867.219L463.472 905.166C452.454 905.649 440.606 905.419 429.529 905.34C428.713 870.586 429.318 832.446 429.507 797.526ZM463.986 844.332C473.191 844.377 483.227 845.073 491.692 841.09C493.959 838.692 494.955 837.417 494.831 834.059C494.391 822.166 482.734 822.076 473.734 822.191C470.591 822.231 467.202 822.171 464.088 822.115C463.784 830.153 463.69 836.268 463.986 844.332Z"/><path fill="#ffffff" d="M639.307 348.954L647.079 348.699C647.519 352.261 647.53 356.68 647.467 360.289C646.905 392.461 647.944 424.832 647.272 456.98C636.342 457.881 622.887 457.411 611.891 457.187C611.729 442.894 611.652 428.6 611.66 414.305C600.885 413.791 588.917 414.08 578.012 414.042C577.62 428.495 577.469 442.954 577.56 457.412C571.104 457.51 564.433 457.435 557.959 457.445L543.198 457.391C542.205 445.321 542.679 428.257 542.671 415.62C542.464 393.473 542.584 371.323 543.032 349.178C554.601 349.258 566.17 349.163 577.736 348.894C577.633 361.342 577.671 373.791 577.851 386.238C589.124 386.287 600.398 386.27 611.671 386.187C611.68 374.012 611.496 361.288 612.37 349.188C621.35 349.237 630.33 349.159 639.307 348.954Z"/><path fill="#ffffff" d="M351.236 794.72C379.729 792.609 402.826 804.953 408.009 834.321C398.43 835.337 384.912 835.29 375.034 835.264C372.298 829.886 369.385 824.31 363.805 821.531C353.235 816.267 343.257 824.487 339.348 834.099C334.844 845.41 334.939 857.155 338.998 868.663C344.287 883.656 369.909 887.546 375.904 871.486C376.494 869.907 376.362 870.066 375.66 868.79C372.27 868.081 365.236 869.671 361.568 870.328C361.456 862.069 361.457 853.81 361.569 845.551C371.058 845.409 381.457 845.833 390.967 846.121C397.398 845.996 403.83 845.94 410.263 845.954L410.139 905.282C402.335 905.954 394.537 905.802 386.714 905.731C386.291 902.007 386.966 899.092 383.459 897.308C379.84 897.724 377.05 902.028 374.701 904.882C359.107 909.816 335.904 908.753 322.291 898.901C303.951 885.533 297.988 862.173 301.724 840.523C306.525 812.697 324.581 799.075 351.236 794.72Z"/><path fill="#ffffff" d="M668.074 797.906C679.834 797.851 691.594 797.867 703.354 797.952C703.01 815.216 702.989 832.485 703.291 849.75C703.414 855.952 703.142 864.448 704.355 870.395C707.547 886.036 732.691 885.558 735.882 870.568C737.372 863.57 736.582 852.163 736.638 844.816C736.756 829.144 736.424 813.716 737.118 798.039C748.905 797.989 760.693 798.005 772.48 798.086L772.421 822.765L772.356 847.478C772.28 864.654 772.392 881.857 759.506 895.104C748.652 906.263 732.714 907.617 717.989 907.641C704.306 907.663 691.087 905.883 681.057 895.654C665.566 879.855 667.75 854.573 667.86 834.059L668.074 797.906Z"/><path fill="#ffffff" d="M791.572 797.926C803.578 798.069 815.585 798.14 827.592 798.138C837.882 798.139 854.258 797.774 863.91 800.072C868.752 801.211 873.269 803.443 877.115 806.597C896.283 822.472 891.684 856.414 869.626 867.337C864.694 869.779 860.701 870.398 855.334 870.813C849.791 871.827 833.851 871.404 827.338 871.349C826.723 882.489 826.684 893.912 826.582 905.069C815.099 905.531 803.117 905.321 791.587 905.279C791.224 869.496 791.219 833.71 791.572 797.926ZM827.792 846.494C835.921 846.825 844.468 847.363 851.816 843.15C855.943 837.679 857.867 830.425 851.218 826.11C844.081 821.479 835.058 821.937 826.942 822.007C826.792 829.564 826.166 839.273 827.792 846.494Z"/><path fill="#ffffff" d="M668.103 349.229C696.888 349.499 725.675 349.474 754.459 349.156C754.782 357.205 754.606 365.825 754.568 373.926L703.077 374.419C702.871 379.23 702.978 384.222 703.011 389.051C716.556 389.106 734.482 388.594 747.586 389.331L747.481 414.232C734.992 414.437 715.317 413.674 703.858 414.629L703.225 415.47L703.156 432.109C721.325 432.382 739.495 432.459 757.665 432.339L757.53 457.339C728.351 457.853 697.263 457.484 668.002 457.211C667.754 421.217 667.788 385.222 668.103 349.229Z"/><path fill="#ffffff" d="M431.867 349.297C464.908 349.793 497.955 349.694 530.992 349C530.635 358.323 530.76 368.422 530.712 377.806C520.452 377.88 509.371 377.498 498.969 377.454C497.714 389.751 498.259 410.214 498.414 423.127L498.492 457.501L463.51 457.514C463.376 430.616 464.232 404.422 463.224 377.442C453.062 377.162 442.1 377.352 431.877 377.338C431.785 367.991 431.782 358.644 431.867 349.297Z"/><path fill="#ffffff" d="M0 505.338L105.702 505.547C108.873 521.619 115.606 542.381 119.938 558.623L133.889 611.221C136.093 619.207 138.083 631.015 142.222 637.704C143.126 637.239 143.282 637.398 143.639 636.35C144.278 634.478 140.167 596.872 139.844 590.858C138.317 562.383 138.77 533.733 138.837 505.227L222.07 505.286L222.162 660.014C222.008 690.003 222.029 719.992 222.224 749.98C188.313 750.475 155.015 749.872 121.469 750.228C116.309 727.478 107.963 701.651 101.973 678.61C97.04 659.636 90.1589 628.281 83.0943 610.969C83.0205 625.948 84.1086 641.023 84.352 656.036C84.7455 687.309 84.9227 718.585 84.8835 749.86L0 749.47L0 505.338Z"/><path fill="#ffffff" d="M980.981 505.354C1015.47 506.071 1050.4 505.537 1084.93 505.532C1114.76 505.24 1147.12 504.159 1172.53 522.462C1188.07 533.648 1193.4 545.111 1196.35 563.587C1197.81 562.593 1199.06 559.277 1200 557.4L1200 593.262L1199.18 593.179C1198.22 591.295 1197.38 588.751 1196.62 586.721L1195.93 590.503C1192.26 607.477 1184.27 616.527 1169.77 625.86C1166.51 627.918 1163.19 629.869 1159.8 631.708C1179.57 639.037 1189.69 650.696 1193.07 671.901L1200 671.481L1200 749.917L1194.75 749.884C1176.91 749.518 1158.72 750.074 1140.85 749.895C1130.23 749.789 1118.63 750.047 1108.1 748.94C1104.25 726.29 1105.74 703.142 1102.9 680.492C1100.56 661.865 1084.38 664.047 1069.95 664.347L1069.41 749.776C1040.08 750.485 1010.42 749.27 981.223 749.955C980.371 723.868 981.016 694.229 980.977 667.881L980.981 505.354ZM1069.79 607.135C1081.54 609.032 1091.06 610.285 1101.32 602.33C1106.53 596.597 1109.87 591.156 1109.3 583.037C1107.75 560.827 1088.19 559.279 1070.75 560.214C1068.57 573.054 1069.07 593.797 1069.79 607.135Z"/><path fill="#ffffff" d="M1200 671.481L1200 749.917L1194.75 749.884C1193.29 746.821 1192.97 680.027 1193.07 671.901L1200 671.481Z"/><path fill="#ffffff" d="M1200 557.4L1200 593.262L1199.18 593.179C1198.22 591.295 1197.38 588.751 1196.62 586.721C1196.46 584.959 1196.16 564.182 1196.35 563.587C1197.81 562.593 1199.06 559.277 1200 557.4Z"/><path fill="#ffffff" fill-opacity="1" d="M1196.62 586.721C1197.38 588.751 1198.22 591.295 1199.18 593.179C1198.42 594.236 1198.91 593.762 1197.62 594.512C1196.19 593.27 1196.5 592.752 1195.93 590.503L1196.62 586.721Z"/></svg>